<?xml version="1.0" encoding="UTF-8" standalone="no"?>
<svg version="1.1" xmlns="http://www.w3.org/2000/svg" xmlns:xlink="http://www.w3.org/1999/xlink" width="567.36" height="567.36">
	<g id="dp_dp001">
		<path id="dp_path002" fill="white" fill-rule="evenodd" d="M 0,0 L 566.928,0 L 566.928,566.928 L 0,566.928 Z "/>
		<path id="dp_path003" fill="#133040" fill-rule="evenodd" d="M 454.389,157.099 C 445.201,153.324 446.005,168.52 445.171,171.328 C 442.196,181.336 434.313,199.496 427.117,200.335 C 421.784,200.957 394.117,183.692 389.536,182.069 C 343.08,165.615 285.42,154.863 229.637,186.961 C 175.016,218.393 176.999,283.199 131.865,328.424 C 119.984,340.329 110.615,345.799 98.324,347.58 C 94.8827,348.077 83.5293,345.583 81.672,353.152 C 78.848,364.669 112.603,384.047 115.608,385.656 C 218.584,440.785 341.873,413.8 398.765,338.36 C 422.641,306.7 430.803,281.967 433.225,245.665 C 433.901,235.539 430.54,222.484 434.333,211.669 C 437.436,202.824 458.559,190.26 464.224,179.067 C 468.46,170.7 462.543,160.74 454.389,157.099 Z M 304.605,227.968 C 281.979,226.825 256.515,231.165 243.528,234.607 C 287.605,233.924 333.585,232.46 364.073,257.123 C 363.696,261.024 355.461,263.675 353.709,264.947 C 347.081,269.759 315.628,292.629 307.025,293.197 C 299.973,293.664 285.44,285.028 274.316,282.459 C 240.871,274.736 222.979,278.015 193.701,283.544 C 192.848,283.636 191.892,283.657 190.989,283.681 C 200.811,286.712 216.031,284.192 225.411,284.915 C 245.911,286.495 266.139,292.893 288.749,303.16 C 289.747,303.611 285.224,305.448 284.06,306.003 C 280.295,307.799 276.532,309.608 272.765,311.413 C 261.881,316.628 252.225,321.189 242.364,325.579 C 215.557,337.515 179.352,349.163 154.111,356.723 C 153.048,357.072 151.955,357.591 151.671,358.157 C 163.045,358.157 173.803,357.625 184.879,356.384 C 207.187,353.885 229.027,347.833 248.031,341.345 C 249.707,343.191 241.219,352.923 239.776,354.633 C 232.324,363.467 227.001,368.064 210.619,377.211 C 229.904,377.211 248.493,362.247 260.24,347.307 C 263.588,343.049 263.428,338.068 269.715,333.279 C 280.109,325.36 295.925,321.208 306.653,315.241 C 316.215,309.923 324.177,301.655 332.272,298.745 C 328.627,325.111 317.615,341.912 293.677,365.684 C 292.709,366.649 296.852,364.508 297.201,364.328 C 299.797,362.992 302.749,361.884 307.375,357.763 C 314.952,351.012 327.493,337.577 331.871,331.395 C 337.007,324.143 344.797,308.359 349.213,297.287 C 351.923,290.495 351.136,286.565 354.536,281.671 C 358.08,276.568 362.431,274.629 366.565,270.787 C 379.067,259.169 394.993,245.52 400.324,231.345 C 400.517,230.632 398.785,231.532 398.195,231.977 C 397.236,232.703 396.645,233.051 395.028,234.309 C 393.276,235.673 383.989,247.947 377.351,245.577 C 347.743,235.009 340.683,229.947 304.605,227.968 Z "/>
		<path id="dp_path004" fill="#009bac" fill-rule="evenodd" d="M 277.095,69.9653 C 223.999,63.164 170.303,83.7373 131.351,121.621 C 118.64,133.983 104.169,154.747 99.7533,163.187 C 98.892,164.832 91.9027,170.221 95.1627,175.833 C 96.9893,178.979 101.26,178.744 103.237,175.855 C 105.62,172.377 110.288,168.563 113.636,165.228 C 131.387,147.543 146.471,131.799 168.356,121.613 C 204.796,104.656 224.537,92.9253 267.171,86.648 C 276.815,85.2267 285.465,84.6653 296.193,83.756 C 297.489,83.6453 304.535,84.8933 305.652,79.4107 C 306.339,76.036 302.372,74.0307 297.612,73.068 C 294.073,72.352 285.26,71.0173 277.095,69.9653 Z "/>
		<path id="dp_path005" fill="#009bac" fill-rule="evenodd" d="M 138.277,426.027 C 137.651,425.887 137.017,425.737 136.375,425.696 C 131.533,425.383 132.327,431.032 133.628,432.725 C 135.799,435.549 137.768,437.787 139.823,440.216 C 148.752,450.775 162.843,463.889 176.463,471.832 C 209.155,490.896 256.423,503.389 294.584,496.748 C 298.223,496.116 307.893,495.952 310.439,492.041 C 310.625,491.755 311.423,487.343 308.168,486.677 C 305.775,486.188 301.799,485.659 298.368,485.253 C 280.588,483.148 260.403,481.703 239.943,475.876 C 215.009,468.776 195.541,460.552 169.275,445.815 C 163.256,442.437 161.848,442.345 154.496,437.193 C 150.131,434.133 145.3,427.841 138.277,426.027 Z "/>
		<path id="dp_path006" fill="#009bac" fill-rule="evenodd" d="M 484.667,204.551 C 482.903,203.787 480.311,205.031 480.376,208.309 C 480.439,211.436 480.797,216.687 481.251,222.088 C 483.092,244.043 484.377,268.003 482.179,289.929 C 479.776,313.888 477.488,339.635 469.6,359.709 C 467.269,365.64 465.924,370.919 463.667,378.509 C 462.653,381.915 461.511,384.84 460.915,387.564 C 460.536,389.291 461.733,392.001 463.489,392.197 C 468.227,392.731 470.084,385.505 470.681,384.687 C 477.931,374.755 482.333,364.155 488.881,349.915 C 500.88,323.824 504.271,278.24 499.099,246.715 C 497.683,238.089 494.817,229.935 492.204,221.395 C 490.641,216.289 488.655,206.425 484.667,204.551 Z "/>
		<path id="dp_path007" fill="#009bac" fill-rule="evenodd" d="M 21.0333,264.787 C 17.504,262.121 13.8293,264.428 12.6507,269.257 C 10.732,277.115 9.904,288.648 9.70933,299.043 C 9.068,333.187 18.744,361.528 33.0187,388.829 C 35.3453,393.279 53.944,423.312 60.9027,421.372 C 63.2267,420.724 64.7867,417.751 64.048,414.94 C 62.9733,410.849 61.2867,408.108 59.0693,403.631 C 51.5307,388.415 47.5573,374.487 41.5293,355.293 C 34.9787,334.437 30.9213,316.472 27.2453,297.048 C 25.9373,290.135 24.884,272.023 21.824,265.833 C 21.6813,265.548 21.692,265.355 21.0333,264.787 Z "/>
		<path id="dp_path008" fill="#009bac" fill-rule="evenodd" d="M 320.139,120.776 C 298.013,118.804 286.3,120.801 269.1,125.808 C 264.032,127.283 259.185,130.371 255.745,131.975 C 255.463,132.108 247.997,135.904 252.317,140.405 C 253.181,141.307 254.415,142.029 255.816,142.079 C 260.311,142.24 266.256,140.953 271.297,140.393 C 281.761,139.232 294.469,138.1 308.191,138.768 C 324.512,139.561 343.193,143.816 356.987,147.619 C 363.776,149.491 372.556,155.657 378.911,154.735 C 382.04,154.28 384.823,150.073 381.744,146.86 C 378.42,143.391 375.629,141.423 372.241,139.172 C 357.963,129.687 336.468,122.42 320.139,120.776 Z "/>
		<path id="dp_path009" fill="#009bac" fill-rule="evenodd" d="M 87.9387,214.649 C 87.1173,212.671 83.9053,212.751 82.936,214.141 C 82.1947,215.203 81.4027,216.231 80.656,217.287 C 77.9787,221.072 76.128,226.143 73.988,230.595 C 64.0707,251.231 63.1187,281.704 69.2853,304.683 C 69.7107,306.268 69.576,313.725 74.4693,314.491 C 76.5347,314.815 77.808,313.484 78.1093,311.601 C 78.3573,310.044 78.5373,308.219 78.6933,305.692 C 79.3187,295.529 78.8227,288.944 79.5013,278.327 C 80.0347,270.009 80.772,261.604 82.2627,251.728 C 83.768,241.753 89.7067,220.797 87.9387,214.649 Z "/>
		<path id="dp_path010" fill="#4cbdc3" fill-rule="evenodd" d="M 290.749,7.99867 C 217.957,4.344 149.916,33.4427 100.313,76.464 C 74.8213,98.5733 52.3453,129.056 40.8733,151.272 C 37.4,158.001 32.8613,168.437 31.18,171.727 C 29.7187,174.583 32.0733,177.929 35.0387,178.451 C 42.964,179.847 46.2773,166.6 47.8893,164.46 C 61.208,146.787 71.8707,134.175 90.176,115.957 C 135.757,70.596 200.395,46.3187 239.776,38.8867 C 280.733,31.1573 332.052,31.8693 374.471,43.9587 C 395.633,49.988 411.083,56.392 427.819,63.7013 C 433.571,66.2147 438.067,68.748 442.593,70.6707 C 445.245,71.796 448.033,69.728 448.676,67.5787 C 450.6,61.144 412.409,39.0067 402.991,34.6747 C 370.389,19.6813 333.361,10.2933 290.749,7.99867 Z "/>
		<path id="dp_path011" fill="#4cbdc3" fill-rule="evenodd" d="M 518.013,161.461 C 511.643,158.725 512.216,166.276 513.847,170.336 C 517.551,179.563 523.217,197.271 525.373,208.104 C 532.219,242.512 539.327,300.531 526.943,345.973 C 518.257,377.841 507.383,417.915 474.413,455.379 C 460.513,471.175 448.665,484.877 433.789,498.391 C 430.967,500.953 427.941,503.011 425.332,506.4 C 423.461,508.828 424.469,512.504 427.584,513.224 C 434.217,514.755 461.551,493 466.691,488.791 C 558.207,413.86 577.584,291.359 537.335,195.925 C 535.46,191.48 528.583,166.465 518.013,161.461 Z "/>
		<path id="dp_path012" fill="#4cbdc3" fill-rule="evenodd" d="M 102.944,471.955 C 101.707,471.459 94.5213,471.809 96.6093,477.748 C 98.6147,483.452 102.228,485.441 105.745,489.251 C 119.597,504.253 132.431,513.571 153.573,527.984 C 204.252,562.531 295.981,567.84 344.141,546.941 C 347.485,545.489 360.961,543.292 362.635,536.22 C 363.305,533.381 358.736,530.447 355.832,530.72 C 351.067,531.168 345.568,532.369 339.017,533.381 C 312.649,537.459 289.121,538.44 263.627,535.665 C 222.203,531.153 181.299,519.031 141.695,497.068 C 127.987,489.467 117.824,477.935 102.944,471.955 Z "/>
		<path id="dp_path013" fill="#4cbdc3" fill-rule="evenodd" d="M 434.455,348.893 C 433.976,348.707 431.555,347.785 430.208,349.528 C 426.931,353.767 421.672,360.625 418.389,364.649 C 406.205,379.584 386.288,399.976 364.132,411.852 C 352.141,418.277 337.3,425.223 330.765,427.492 C 328.096,428.419 320.452,430 315.047,432.236 C 306.448,435.795 296.836,436.939 293.924,437.543 C 292.236,437.892 290.889,438.132 289.156,438.697 C 287.448,439.253 286.489,442.536 288.3,443.809 C 293.749,447.641 299.385,445.668 304.721,445.78 C 334.415,446.405 378.356,432.579 408.32,399.137 C 419.555,386.597 424.492,378.856 430.004,366.353 C 432.007,361.808 433.335,359.212 434.257,357.067 C 434.788,355.835 435.229,354.54 435.492,353.185 L 435.723,350.884 Z "/>
		<path id="dp_path014" fill="#4cbdc3" fill-rule="evenodd" d="M 194.212,154.965 C 191.092,153.048 189.224,154.787 187.876,155.431 C 183.363,157.588 174.495,162.887 170.663,165.961 C 141.34,189.492 121.267,223.231 120.531,267.415 C 120.456,271.869 119.251,281.184 123.944,283.897 C 133.092,289.188 134.627,267.616 135.059,265.373 C 137.711,251.617 145.456,232.809 153.856,216.659 C 162.277,200.465 176.155,183.168 188.56,170 C 190.883,167.533 193.771,164.604 195.181,162.815 C 196.959,160.563 197.195,157.011 194.212,154.965 Z "/>
		<path id="dp_path015" fill="#4cbdc3" fill-rule="evenodd" d="M 449.145,422.501 C 448.025,420.856 444.747,422.171 443.259,423.492 C 441.14,425.375 433.352,430.543 431.103,432.059 C 422.713,437.713 411.263,446.211 402.331,451.791 C 400.073,453.201 400.608,453.885 398.387,455.189 C 397.396,455.769 396.007,455.725 395.825,455.789 C 391.727,457.233 387.568,460.931 383.703,463.031 C 374.377,468.095 365.281,472.161 353.937,477.299 C 350.005,479.079 346.212,480.776 342.593,483.003 C 341.337,483.775 339.603,485.504 340.312,486.796 C 342.812,491.344 356.955,488.487 357.429,488.429 C 369.251,487.005 393.095,479.684 416.152,463.752 C 423.037,458.995 429.017,452.252 434.793,446.312 C 440.544,440.4 451.901,428.817 449.145,422.501 Z "/>
		<path id="dp_path016" fill="#4cbdc3" fill-rule="evenodd" d="M 366.299,83.0187 C 359.047,82.116 351.947,81.7027 344.388,81.8053 C 339.103,81.876 336.809,86.624 340.049,89.328 C 344.381,92.944 357.147,93.6253 359.996,94.3507 C 362.845,95.0773 366.637,96.9347 372.212,98.7893 C 376.855,100.335 377.645,99.8267 382.523,101.577 C 390.763,104.535 405.495,112.64 413.412,117.321 C 414.905,118.205 434.059,133.252 438.088,132.675 C 442.795,132.001 441.335,127.096 438.609,123.756 C 436.043,120.612 429.904,113.657 423.539,108.397 C 407.929,95.5 390.228,86.42 366.299,83.0187 Z "/>
	</g>
</svg>