<svg width="1110" height="552" viewBox="0 0 1110 552" fill="none" xmlns="http://www.w3.org/2000/svg">
<path fill-rule="evenodd" clip-rule="evenodd" d="M444.71 149.409C435.522 145.634 436.326 160.83 435.492 163.638C432.517 173.646 424.634 191.806 417.438 192.645C412.105 193.268 384.438 176.002 379.857 174.38C333.401 157.925 275.741 147.173 219.958 179.272C165.337 210.704 167.32 275.509 122.186 320.734C110.305 332.64 100.936 338.109 88.6448 339.89C85.2035 340.388 73.8501 337.893 71.9928 345.462C69.1688 356.98 102.924 376.357 105.929 377.966C208.905 433.096 332.194 406.11 389.086 330.67C412.962 299.01 421.124 274.277 423.546 237.976C424.222 227.849 420.861 214.794 424.654 203.98C427.757 195.134 448.88 182.57 454.545 171.377C458.781 163.01 452.864 153.05 444.71 149.409ZM294.926 220.278C272.3 219.136 246.836 223.476 233.849 226.917C277.926 226.234 323.906 224.77 354.394 249.433C354.017 253.334 345.782 255.985 344.03 257.257C337.402 262.069 305.949 284.94 297.346 285.508C290.294 285.974 275.761 277.338 264.637 274.769C231.192 267.046 213.3 270.325 184.022 275.854C183.169 275.946 182.213 275.968 181.31 275.992C191.132 279.022 206.352 276.502 215.732 277.225C236.232 278.805 256.46 285.204 279.07 295.47C280.068 295.921 275.545 297.758 274.381 298.313C270.616 300.109 266.853 301.918 263.086 303.724C252.202 308.938 242.546 313.5 232.685 317.889C205.878 329.825 169.673 341.473 144.432 349.033C143.369 349.382 142.276 349.901 141.992 350.468C153.366 350.468 164.124 349.936 175.2 348.694C197.508 346.196 219.348 340.144 238.352 333.656C240.028 335.501 231.54 345.233 230.097 346.944C222.645 355.777 217.322 360.374 200.94 369.521C220.225 369.521 238.814 354.557 250.561 339.617C253.909 335.36 253.749 330.378 260.036 325.589C270.43 317.67 286.246 313.518 296.974 307.552C306.536 302.233 314.498 293.965 322.593 291.056C318.948 317.421 307.936 334.222 283.998 357.994C283.03 358.96 287.173 356.818 287.522 356.638C290.118 355.302 293.07 354.194 297.696 350.073C305.273 343.322 317.814 329.888 322.192 323.705C327.328 316.453 335.118 300.669 339.534 289.597C342.244 282.805 341.457 278.876 344.857 273.981C348.401 268.878 352.752 266.94 356.886 263.097C369.388 251.48 385.314 237.83 390.645 223.656C390.838 222.942 389.106 223.842 388.516 224.288C387.557 225.013 386.966 225.361 385.349 226.62C383.597 227.984 374.31 240.257 367.672 237.888C338.064 227.32 331.004 222.257 294.926 220.278Z" fill="white"/>
<path fill-rule="evenodd" clip-rule="evenodd" d="M267.416 62.2763C214.32 55.4743 160.624 76.0483 121.672 113.932C108.961 126.293 94.4898 147.057 90.0738 155.497C89.2128 157.142 82.2235 162.532 85.4835 168.144C87.3098 171.289 91.5808 171.054 93.5578 168.165C95.9408 164.688 100.609 160.873 103.957 157.538C121.708 139.853 136.792 124.109 158.677 113.924C195.117 96.9663 214.858 85.2363 257.492 78.9583C267.136 77.5373 275.786 76.9763 286.514 76.0663C287.81 75.9563 294.856 77.2043 295.973 71.7213C296.66 68.3463 292.693 66.3413 287.933 65.3783C284.394 64.6623 275.581 63.3283 267.416 62.2763Z" fill="#009BAC"/>
<path fill-rule="evenodd" clip-rule="evenodd" d="M128.598 418.337C127.972 418.197 127.338 418.048 126.696 418.006C121.854 417.693 122.648 423.342 123.949 425.036C126.12 427.86 128.089 430.097 130.144 432.526C139.073 443.085 153.164 456.2 166.784 464.142C199.476 483.206 246.744 495.7 284.905 489.058C288.544 488.426 298.214 488.262 300.76 484.352C300.946 484.065 301.744 479.653 298.489 478.988C296.096 478.498 292.12 477.969 288.689 477.564C270.909 475.458 250.724 474.013 230.264 468.186C205.33 461.086 185.862 452.862 159.596 438.125C153.577 434.748 152.169 434.656 144.817 429.504C140.452 426.444 135.621 420.152 128.598 418.337Z" fill="#009BAC"/>
<path fill-rule="evenodd" clip-rule="evenodd" d="M474.988 196.861C473.224 196.097 470.632 197.341 470.697 200.62C470.76 203.746 471.118 208.997 471.572 214.398C473.413 236.353 474.698 260.313 472.5 282.24C470.097 306.198 467.809 331.945 459.921 352.02C457.59 357.95 456.245 363.229 453.988 370.82C452.974 374.225 451.832 377.15 451.236 379.874C450.857 381.601 452.054 384.312 453.81 384.508C458.548 385.041 460.405 377.816 461.002 376.997C468.252 367.065 472.654 356.465 479.202 342.225C491.201 316.134 494.592 270.55 489.42 239.025C488.004 230.4 485.138 222.245 482.525 213.705C480.962 208.6 478.976 198.736 474.988 196.861Z" fill="#009BAC"/>
<path fill-rule="evenodd" clip-rule="evenodd" d="M11.3541 257.097C7.82477 254.432 4.15007 256.738 2.97147 261.568C1.05277 269.425 0.22477 280.958 0.0300702 291.353C-0.61123 325.497 9.06477 353.838 23.3395 381.14C25.6661 385.589 44.2648 415.622 51.2235 413.682C53.5475 413.034 55.1075 410.061 54.3688 407.25C53.2941 403.16 51.6075 400.418 49.3901 395.941C41.8515 380.725 37.8781 366.797 31.8501 347.604C25.2995 326.748 21.2421 308.782 17.5661 289.358C16.2581 282.445 15.2048 264.333 12.1448 258.144C12.0021 257.858 12.0128 257.665 11.3541 257.097Z" fill="#009BAC"/>
<path fill-rule="evenodd" clip-rule="evenodd" d="M310.46 113.086C288.334 111.114 276.621 113.112 259.421 118.118C254.353 119.593 249.506 122.681 246.066 124.285C245.784 124.418 238.318 128.214 242.638 132.716C243.502 133.617 244.736 134.34 246.137 134.389C250.632 134.55 256.577 133.264 261.618 132.704C272.082 131.542 284.79 130.41 298.512 131.078C314.833 131.872 333.514 136.126 347.308 139.929C354.097 141.801 362.877 147.968 369.232 147.045C372.361 146.59 375.144 142.384 372.065 139.17C368.741 135.701 365.95 133.733 362.562 131.482C348.284 121.997 326.789 114.73 310.46 113.086Z" fill="#009BAC"/>
<path fill-rule="evenodd" clip-rule="evenodd" d="M78.2595 206.96C77.4381 204.981 74.2261 205.061 73.2568 206.452C72.5155 207.513 71.7235 208.541 70.9768 209.597C68.2995 213.382 66.4488 218.453 64.3088 222.905C54.3915 243.541 53.4395 274.014 59.6061 296.993C60.0315 298.578 59.8968 306.036 64.7901 306.801C66.8555 307.125 68.1288 305.794 68.4301 303.912C68.6781 302.354 68.8581 300.529 69.0141 298.002C69.6395 287.84 69.1435 281.254 69.8221 270.637C70.3555 262.32 71.0928 253.914 72.5835 244.038C74.0888 234.064 80.0275 213.108 78.2595 206.96Z" fill="#009BAC"/>
<path fill-rule="evenodd" clip-rule="evenodd" d="M281.07 0.309247C208.278 -3.34575 140.237 25.7532 90.6338 68.7742C65.1421 90.8842 42.6661 121.366 31.1941 143.582C27.7208 150.312 23.1821 160.748 21.5008 164.037C20.0395 166.893 22.3941 170.24 25.3595 170.761C33.2848 172.157 36.5981 158.91 38.2101 156.77C51.5288 139.097 62.1915 126.485 80.4968 108.268C126.078 62.9062 190.716 38.6292 230.097 31.1972C271.054 23.4682 322.373 24.1802 364.792 36.2692C385.954 42.2982 401.404 48.7022 418.14 56.0122C423.892 58.5252 428.388 61.0582 432.914 62.9812C435.566 64.1062 438.354 62.0382 438.997 59.8892C440.921 53.4542 402.73 31.3172 393.312 26.9852C360.71 11.9922 323.682 2.60425 281.07 0.309247Z" fill="#4CBDC3"/>
<path fill-rule="evenodd" clip-rule="evenodd" d="M508.334 153.772C501.964 151.036 502.537 158.586 504.168 162.646C507.872 171.873 513.538 189.581 515.694 200.414C522.54 234.822 529.648 292.841 517.264 338.284C508.578 370.152 497.704 410.225 464.734 447.689C450.834 463.485 438.986 477.188 424.11 490.701C421.288 493.264 418.262 495.321 415.653 498.71C413.782 501.138 414.79 504.814 417.905 505.534C424.538 507.065 451.872 485.31 457.012 481.101C548.528 406.17 567.905 283.669 527.656 188.236C525.781 183.79 518.904 158.776 508.334 153.772Z" fill="#4CBDC3"/>
<path fill-rule="evenodd" clip-rule="evenodd" d="M93.2648 464.265C92.0278 463.769 84.8421 464.12 86.9298 470.058C88.9358 475.762 92.5488 477.752 96.0658 481.561C109.918 496.564 122.752 505.881 143.894 520.294C194.573 554.841 286.302 560.15 334.462 539.252C337.806 537.8 351.282 535.602 352.956 528.53C353.626 525.692 349.057 522.757 346.153 523.03C341.388 523.478 335.889 524.68 329.338 525.692C302.97 529.769 279.442 530.75 253.948 527.976C212.524 523.464 171.62 511.341 132.016 489.378C118.308 481.777 108.145 470.245 93.2648 464.265Z" fill="#4CBDC3"/>
<path fill-rule="evenodd" clip-rule="evenodd" d="M424.776 341.204C424.297 341.017 421.876 340.096 420.529 341.838C417.252 346.077 411.993 352.936 408.71 356.96C396.526 371.894 376.609 392.286 354.453 404.162C342.462 410.588 327.621 417.533 321.086 419.802C318.417 420.729 310.773 422.31 305.368 424.546C296.769 428.105 287.157 429.249 284.245 429.853C282.557 430.202 281.21 430.442 279.477 431.008C277.769 431.564 276.81 434.846 278.621 436.12C284.07 439.952 289.706 437.978 295.042 438.09C324.736 438.716 368.677 424.889 398.641 391.448C409.876 378.908 414.813 371.166 420.325 358.664C422.328 354.118 423.656 351.522 424.578 349.377C425.109 348.145 425.55 346.85 425.813 345.496L426.044 343.194L424.776 341.204Z" fill="#4CBDC3"/>
<path fill-rule="evenodd" clip-rule="evenodd" d="M184.533 147.276C181.413 145.358 179.545 147.097 178.197 147.741C173.684 149.898 164.816 155.197 160.984 158.272C131.661 181.802 111.588 215.541 110.852 259.725C110.777 264.18 109.572 273.494 114.265 276.208C123.413 281.498 124.948 259.926 125.38 257.684C128.032 243.928 135.777 225.12 144.177 208.969C152.598 192.776 166.476 175.478 178.881 162.31C181.204 159.844 184.092 156.914 185.502 155.125C187.28 152.873 187.516 149.321 184.533 147.276Z" fill="#4CBDC3"/>
<path fill-rule="evenodd" clip-rule="evenodd" d="M439.466 414.812C438.346 413.166 435.068 414.481 433.58 415.802C431.461 417.685 423.673 422.853 421.424 424.369C413.034 430.024 401.584 438.521 392.652 444.101C390.394 445.512 390.929 446.196 388.708 447.5C387.717 448.08 386.328 448.036 386.146 448.1C382.048 449.544 377.889 453.241 374.024 455.341C364.698 460.405 355.602 464.472 344.258 469.609C340.326 471.389 336.533 473.086 332.914 475.313C331.658 476.085 329.924 477.814 330.633 479.106C333.133 483.654 347.276 480.797 347.75 480.74C359.572 479.316 383.416 471.994 406.473 456.062C413.358 451.305 419.338 444.562 425.114 438.622C430.865 432.71 442.222 421.128 439.466 414.812Z" fill="#4CBDC3"/>
<path fill-rule="evenodd" clip-rule="evenodd" d="M356.62 75.3293C349.368 74.4263 342.268 74.0133 334.709 74.1163C329.424 74.1863 327.13 78.9343 330.37 81.6383C334.702 85.2543 347.468 85.9363 350.317 86.6613C353.166 87.3883 356.958 89.2453 362.533 91.1003C367.176 92.6453 367.966 92.1373 372.844 93.8883C381.084 96.8453 395.816 104.95 403.733 109.632C405.226 110.516 424.38 125.562 428.409 124.985C433.116 124.312 431.656 119.406 428.93 116.066C426.364 112.922 420.225 105.968 413.86 100.708C398.25 87.8103 380.549 78.7303 356.62 75.3293Z" fill="#4CBDC3"/>
<path d="M578.456 63.2396H614.163V75.3036H595.235V79.325H611.529V91.805H595.235V95.8263H614.163V107.89H578.456V63.2396Z" fill="white"/>
<path d="M631.343 63.2396H648.746L665.94 107.89H648.468L645.279 99.5703H634.81L631.62 107.89H614.148L631.343 63.2396ZM643.407 88.1303L640.01 79.6023L636.612 88.1303H643.407Z" fill="white"/>
<path d="M683.421 108.584C680.231 108.584 677.181 108.306 674.269 107.752C671.357 107.197 668.93 106.434 666.989 105.464V92.9143C669.207 93.977 671.669 94.8556 674.373 95.549C677.077 96.2423 679.491 96.589 681.618 96.589C683.005 96.589 684.091 96.4156 684.877 96.069C685.662 95.7223 686.055 95.225 686.055 94.5783C686.055 94.0236 685.731 93.573 685.085 93.2263C684.438 92.8796 683.235 92.4063 681.479 91.805C679.446 91.1116 678.29 90.7183 678.013 90.6263C675.054 89.517 672.766 88.361 671.149 87.1596C669.531 85.9583 668.363 84.525 667.647 82.861C666.931 81.197 666.573 79.0703 666.573 76.4823C666.573 71.7676 668.202 68.2663 671.461 65.9783C674.719 63.6903 679.63 62.5463 686.194 62.5463C688.366 62.5463 690.886 62.7663 693.751 63.205C696.617 63.6436 698.998 64.141 700.893 64.6956V77.3143C696.502 75.5116 692.55 74.6103 689.037 74.6103C685.478 74.6103 683.698 75.1876 683.698 76.3436C683.698 76.8063 684.022 77.1876 684.669 77.4876C685.315 77.7876 686.61 78.2156 688.551 78.7703L690.354 79.2556C693.913 80.2263 696.629 81.417 698.501 82.8263C700.373 84.2356 701.643 85.8543 702.314 87.6796C702.985 89.505 703.319 91.7823 703.319 94.509C703.319 98.8543 701.621 102.286 698.223 104.805C694.826 107.324 689.891 108.584 683.421 108.584Z" fill="white"/>
<path d="M714.005 75.3036H702.634V63.2396H742.154V75.3036H730.783V107.89H714.005V75.3036Z" fill="white"/>
<path d="M762.371 63.2396H779.15V95.133H797.385V107.89H762.371V63.2396Z" fill="white"/>
<path d="M820.69 108.584C812.833 108.584 806.881 106.781 802.837 103.176C798.793 99.5703 796.77 93.6996 796.77 85.565C796.77 77.4303 798.793 71.5596 802.837 67.9543C806.881 64.349 812.833 62.5463 820.69 62.5463C828.547 62.5463 834.499 64.349 838.543 67.9543C842.587 71.5596 844.61 77.4303 844.61 85.565C844.61 93.6996 842.587 99.5703 838.543 103.176C834.499 106.781 828.547 108.584 820.69 108.584ZM820.69 94.3703C823.139 94.3703 824.885 93.7116 825.925 92.3943C826.965 91.077 827.485 88.801 827.485 85.565C827.485 82.329 826.965 80.053 825.925 78.7356C824.885 77.4183 823.139 76.7596 820.69 76.7596C818.241 76.7596 816.495 77.4183 815.455 78.7356C814.415 80.053 813.895 82.329 813.895 85.565C813.895 88.801 814.415 91.077 815.455 92.3943C816.495 93.7116 818.241 94.3703 820.69 94.3703Z" fill="white"/>
<path d="M846.698 63.2396H860.773L873.253 80.7116V63.2396H890.031V107.89H875.887L863.477 90.4183V107.89H846.698V63.2396Z" fill="white"/>
<path d="M893.577 63.2396H914.793C930.231 63.2396 937.95 70.7743 937.95 85.8423C937.95 93.377 935.951 98.9343 931.953 102.517C927.954 106.1 922.234 107.89 914.793 107.89H893.577V63.2396ZM912.851 95.133C915.578 95.133 917.601 94.497 918.918 93.2263C920.235 91.9556 920.894 89.4943 920.894 85.8423C920.894 83.3463 920.605 81.4516 920.027 80.157C919.45 78.8623 918.594 78.0076 917.462 77.5916C916.33 77.1756 914.793 76.9676 912.851 76.9676H910.355V95.133H912.851Z" fill="white"/>
<path d="M962.618 108.584C954.761 108.584 948.809 106.781 944.765 103.176C940.721 99.5703 938.698 93.6996 938.698 85.565C938.698 77.4303 940.721 71.5596 944.765 67.9543C948.809 64.349 954.761 62.5463 962.618 62.5463C970.475 62.5463 976.427 64.349 980.471 67.9543C984.515 71.5596 986.538 77.4303 986.538 85.565C986.538 93.6996 984.515 99.5703 980.471 103.176C976.427 106.781 970.475 108.584 962.618 108.584ZM962.618 94.3703C965.067 94.3703 966.813 93.7116 967.853 92.3943C968.893 91.077 969.413 88.801 969.413 85.565C969.413 82.329 968.893 80.053 967.853 78.7356C966.813 77.4183 965.067 76.7596 962.618 76.7596C960.169 76.7596 958.423 77.4183 957.383 78.7356C956.343 80.053 955.823 82.329 955.823 85.565C955.823 88.801 956.343 91.077 957.383 92.3943C958.423 93.7116 960.169 94.3703 962.618 94.3703Z" fill="white"/>
<path d="M988.626 63.2396H1002.7L1015.18 80.7116V63.2396H1031.96V107.89H1017.81L1005.4 90.4183V107.89H988.626V63.2396Z" fill="white"/>
<path d="M571.703 133.236H605.303L615.063 180.276L623.703 149.716V133.236H651.703L665.303 180.436L675.863 133.236H709.463L685.623 236.276H655.063L641.143 189.396L626.103 236.276H595.703L571.703 133.236Z" fill="white"/>
<path d="M738.799 133.236H774.799L814.479 236.276H778.639L770.639 215.796H742.959L735.119 236.276H699.279L738.799 133.236ZM766.479 191.796L756.719 166.836L747.119 191.796H766.479Z" fill="white"/>
<path d="M821.554 158.356H794.034V133.236H883.634V158.356H855.954V236.276H821.554V158.356Z" fill="white"/>
<path d="M892.037 133.236H972.197V158.676H926.437V171.796H966.277V197.876H926.437V210.836H972.197V236.276H892.037V133.236Z" fill="white"/>
<path d="M984.243 133.236H1039.92C1052.4 133.236 1061.84 136.676 1068.24 143.556C1074.64 150.436 1077.84 159.53 1077.84 170.836C1077.84 177.556 1076.16 183.556 1072.8 188.836C1069.44 194.116 1064.94 198.41 1059.28 201.716C1061.31 203.316 1063.02 205.663 1064.4 208.756L1076.4 236.276H1040.56L1030 212.436C1029.26 210.836 1028.43 209.716 1027.52 209.076C1026.62 208.436 1025.31 208.116 1023.6 208.116H1018.64V236.276H984.243V133.236ZM1031.28 181.556C1035.02 181.556 1037.87 180.65 1039.84 178.836C1041.82 177.023 1042.8 174.356 1042.8 170.836C1042.8 163.583 1039.23 159.956 1032.08 159.956H1018.64V181.556H1031.28Z" fill="white"/>
<path d="M572.65 260.472H606.25L616.01 307.512L624.65 276.952V260.472H652.65L666.25 307.672L676.81 260.472H710.41L686.57 363.512H656.01L642.09 316.632L627.05 363.512H596.65L572.65 260.472Z" fill="white"/>
<path d="M757.999 365.112C740.186 365.112 726.746 360.925 717.679 352.552C708.613 344.179 704.079 330.712 704.079 312.152C704.079 293.379 708.613 279.806 717.679 271.432C726.746 263.059 740.186 258.872 757.999 258.872C775.813 258.872 789.253 263.059 798.319 271.432C807.386 279.806 811.919 293.379 811.919 312.152C811.919 330.712 807.386 344.179 798.319 352.552C789.253 360.925 775.813 365.112 757.999 365.112ZM757.999 335.992C764.613 335.992 769.386 334.126 772.319 330.392C775.253 326.659 776.719 320.579 776.719 312.152C776.719 303.406 775.279 297.219 772.399 293.592C769.519 289.966 764.719 288.152 757.999 288.152C751.279 288.152 746.453 289.966 743.519 293.592C740.586 297.219 739.119 303.406 739.119 312.152C739.119 320.686 740.586 326.792 743.519 330.472C746.453 334.152 751.279 335.992 757.999 335.992Z" fill="white"/>
<path d="M818.158 260.472H873.838C886.318 260.472 895.758 263.912 902.158 270.792C908.558 277.672 911.758 286.766 911.758 298.072C911.758 304.792 910.078 310.792 906.718 316.072C903.358 321.352 898.851 325.646 893.198 328.952C895.225 330.552 896.931 332.899 898.318 335.992L910.318 363.512H874.478L863.918 339.672C863.171 338.072 862.345 336.952 861.438 336.312C860.531 335.672 859.225 335.352 857.518 335.352H852.558V363.512H818.158V260.472ZM865.198 308.792C868.931 308.792 871.785 307.886 873.758 306.072C875.731 304.259 876.718 301.592 876.718 298.072C876.718 290.819 873.145 287.192 865.998 287.192H852.558V308.792H865.198Z" fill="white"/>
<path d="M922.863 260.472H957.263V293.112L984.143 260.472H1023.02L987.343 303.032L1025.9 363.512H989.423L966.223 324.792L957.263 335.192V363.512H922.863V260.472Z" fill="white"/>
<path d="M1064.67 365.112C1057.53 365.112 1050.73 364.525 1044.27 363.352C1037.82 362.179 1032.35 360.525 1027.87 358.392V331.512C1032.89 333.859 1038.43 335.779 1044.51 337.272C1050.59 338.765 1056.09 339.512 1060.99 339.512C1065.47 339.512 1068.81 339.059 1070.99 338.152C1073.18 337.245 1074.27 335.672 1074.27 333.432C1074.27 331.406 1073.26 329.832 1071.23 328.712C1069.21 327.592 1065.42 326.126 1059.87 324.312C1058.27 323.886 1056.25 323.246 1053.79 322.392C1046.86 320.046 1041.47 317.512 1037.63 314.792C1033.79 312.072 1031.02 308.792 1029.31 304.952C1027.61 301.112 1026.75 296.312 1026.75 290.552C1026.75 269.432 1041.42 258.872 1070.75 258.872C1075.98 258.872 1081.74 259.352 1088.03 260.312C1094.33 261.272 1099.61 262.392 1103.87 263.672V290.712C1093.95 286.766 1084.83 284.792 1076.51 284.792C1071.93 284.792 1068.33 285.166 1065.71 285.912C1063.1 286.659 1061.79 288.099 1061.79 290.232C1061.79 291.619 1062.35 292.739 1063.47 293.592C1064.59 294.446 1066.19 295.192 1068.27 295.832C1070.35 296.472 1074.01 297.486 1079.23 298.872C1087.45 301.112 1093.74 303.832 1098.11 307.032C1102.49 310.232 1105.47 313.912 1107.07 318.072C1108.67 322.232 1109.47 327.299 1109.47 333.272C1109.47 343.085 1105.66 350.845 1098.03 356.552C1090.41 362.259 1079.29 365.112 1064.67 365.112Z" fill="white"/>
<path d="M579.194 387.708H634.714C643.034 387.708 650.047 389.441 655.754 392.908C661.46 396.375 665.727 401.041 668.554 406.908C671.38 412.775 672.794 419.388 672.794 426.748C672.794 434.108 671.194 440.721 667.994 446.588C664.794 452.455 660.26 457.068 654.394 460.428C648.527 463.788 641.754 465.468 634.074 465.468H613.594V490.748H579.194V387.708ZM626.074 438.748C629.807 438.748 632.687 437.681 634.714 435.548C636.74 433.415 637.754 430.481 637.754 426.748C637.754 422.801 636.847 419.761 635.034 417.628C633.22 415.495 630.447 414.428 626.714 414.428H613.594V438.748H626.074Z" fill="white"/>
<path d="M693.566 387.72H729.566L769.246 490.76H733.406L725.406 470.28H697.726L689.886 490.76H654.046L693.566 387.72ZM721.246 446.28L711.486 421.32L701.886 446.28H721.246Z" fill="white"/>
<path d="M773.538 387.7H829.218C841.698 387.7 851.138 391.14 857.538 398.02C863.938 404.9 867.138 413.993 867.138 425.3C867.138 432.02 865.458 438.02 862.098 443.3C858.738 448.58 854.231 452.873 848.578 456.18C850.605 457.78 852.311 460.127 853.698 463.22L865.698 490.74H829.858L819.298 466.9C818.551 465.3 817.725 464.18 816.818 463.54C815.911 462.9 814.605 462.58 812.898 462.58H807.938V490.74H773.538V387.7ZM820.578 436.02C824.311 436.02 827.165 435.113 829.138 433.3C831.111 431.487 832.098 428.82 832.098 425.3C832.098 418.047 828.525 414.42 821.378 414.42H807.938V436.02H820.578Z" fill="white"/>
<path d="M878.843 387.72H913.243V420.36L940.123 387.72H979.003L943.323 430.28L981.883 490.76H945.403L922.203 452.04L913.243 462.44V490.76H878.843V387.72Z" fill="white"/>
</svg>
