<?xml version="1.0" encoding="UTF-8" standalone="no"?>
<svg version="1.1" xmlns="http://www.w3.org/2000/svg" xmlns:xlink="http://www.w3.org/1999/xlink" width="1112.96" height="551.68">
	<g id="dp_dp001">
		<path id="dp_path002" fill="#133040" fill-rule="evenodd" d="M 444.677,149.407 C 435.489,145.632 436.293,160.828 435.459,163.636 C 432.484,173.644 424.601,191.804 417.405,192.643 C 412.072,193.265 384.405,176 379.824,174.377 C 333.368,157.923 275.709,147.171 219.925,179.269 C 165.305,210.701 167.288,275.507 122.155,320.732 C 110.275,332.637 100.904,338.107 88.6147,339.888 C 85.1733,340.385 73.8187,337.891 71.9627,345.46 C 69.1387,356.977 102.892,376.355 105.897,377.964 C 208.873,433.093 332.161,406.108 389.053,330.668 C 412.929,299.008 421.091,274.275 423.513,237.973 C 424.189,227.847 420.828,214.792 424.621,203.977 C 427.724,195.132 448.847,182.568 454.512,171.375 C 458.748,163.008 452.831,153.048 444.677,149.407 Z M 294.895,220.276 C 272.268,219.133 246.804,223.473 233.817,226.915 C 277.895,226.232 323.875,224.768 354.361,249.431 C 353.984,253.332 345.751,255.983 343.997,257.255 C 337.369,262.067 305.916,284.937 297.315,285.505 C 290.263,285.972 275.728,277.336 264.604,274.767 C 231.16,267.044 213.268,270.323 183.991,275.852 C 183.137,275.944 182.181,275.965 181.28,275.989 C 191.1,279.02 206.32,276.5 215.7,277.223 C 236.2,278.803 256.428,285.201 279.039,295.468 C 280.036,295.919 275.512,297.756 274.349,298.311 C 270.583,300.107 266.82,301.916 263.055,303.721 C 252.171,308.936 242.515,313.497 232.653,317.887 C 205.847,329.823 169.643,341.471 144.401,349.031 C 143.339,349.38 142.244,349.899 141.96,350.465 C 153.335,350.465 164.092,349.933 175.168,348.692 C 197.476,346.193 219.316,340.141 238.32,333.653 C 239.996,335.499 231.508,345.231 230.064,346.941 C 222.613,355.775 217.291,360.372 200.908,369.519 C 220.193,369.519 238.783,354.555 250.529,339.615 C 253.876,335.357 253.717,330.376 260.004,325.587 C 270.399,317.668 286.215,313.516 296.943,307.549 C 306.504,302.231 314.467,293.963 322.56,291.053 C 318.916,317.419 307.904,334.22 283.965,357.992 C 282.999,358.957 287.141,356.816 287.491,356.636 C 290.087,355.3 293.039,354.192 297.663,350.071 C 305.24,343.32 317.781,329.885 322.16,323.703 C 327.295,316.451 335.087,300.667 339.503,289.595 C 342.211,282.803 341.424,278.873 344.824,273.979 C 348.369,268.876 352.719,266.937 356.853,263.095 C 369.355,251.477 385.281,237.828 390.612,223.653 C 390.805,222.94 389.073,223.84 388.483,224.285 C 387.524,225.011 386.935,225.359 385.316,226.617 C 383.564,227.981 374.277,240.255 367.639,237.885 C 338.032,227.317 330.971,222.255 294.895,220.276 Z "/>
		<path id="dp_path003" fill="#009bac" fill-rule="evenodd" d="M 267.384,62.2733 C 214.288,55.472 160.592,76.0453 121.64,113.929 C 108.929,126.291 94.46,147.055 90.044,155.495 C 89.1827,157.14 82.1933,162.529 85.4533,168.141 C 87.28,171.287 91.5507,171.052 93.528,168.163 C 95.9093,164.685 100.577,160.871 103.925,157.536 C 121.676,139.851 136.76,124.107 158.647,113.921 C 195.085,96.964 214.827,85.2333 257.46,78.956 C 267.104,77.5347 275.755,76.9733 286.483,76.064 C 287.779,75.9533 294.824,77.2013 295.94,71.7187 C 296.628,68.344 292.661,66.3387 287.901,65.376 C 284.361,64.66 275.549,63.3253 267.384,62.2733 Z "/>
		<path id="dp_path004" fill="#009bac" fill-rule="evenodd" d="M 128.567,418.335 C 127.94,418.195 127.307,418.045 126.664,418.004 C 121.823,417.691 122.616,423.34 123.917,425.033 C 126.089,427.857 128.057,430.095 130.112,432.524 C 139.041,443.083 153.133,456.197 166.752,464.14 C 199.445,483.204 246.712,495.697 284.873,489.056 C 288.512,488.424 298.181,488.26 300.728,484.349 C 300.915,484.063 301.711,479.651 298.456,478.985 C 296.063,478.496 292.088,477.967 288.657,477.561 C 270.877,475.456 250.691,474.011 230.232,468.184 C 205.299,461.084 185.831,452.86 159.564,438.123 C 153.545,434.745 152.137,434.653 144.787,429.501 C 140.42,426.441 135.589,420.149 128.567,418.335 Z "/>
		<path id="dp_path005" fill="#009bac" fill-rule="evenodd" d="M 474.953,196.859 C 473.191,196.095 470.599,197.339 470.664,200.617 C 470.727,203.744 471.085,208.995 471.539,214.396 C 473.379,236.351 474.665,260.311 472.467,282.237 C 470.064,306.196 467.776,331.943 459.888,352.017 C 457.557,357.948 456.211,363.227 453.953,370.817 C 452.941,374.223 451.799,377.148 451.203,379.872 C 450.824,381.599 452.021,384.309 453.777,384.505 C 458.515,385.039 460.371,377.813 460.969,376.995 C 468.219,367.063 472.62,356.463 479.169,342.223 C 491.168,316.132 494.559,270.548 489.385,239.023 C 487.971,230.397 485.104,222.243 482.491,213.703 C 480.928,208.597 478.943,198.733 474.953,196.859 Z "/>
		<path id="dp_path006" fill="#009bac" fill-rule="evenodd" d="M 11.324,257.095 C 7.79467,254.429 4.12,256.736 2.94133,261.565 C 1.02267,269.423 0.194667,280.956 0,291.351 C -0.641333,325.495 9.03467,353.836 23.3093,381.137 C 25.6347,385.587 44.2347,415.62 51.1933,413.68 C 53.5173,413.032 55.076,410.059 54.3387,407.248 C 53.264,403.157 51.576,400.416 49.3587,395.939 C 41.8213,380.723 37.848,366.795 31.82,347.601 C 25.2693,326.745 21.212,308.78 17.536,289.356 C 16.228,282.443 15.1747,264.331 12.1147,258.141 C 11.972,257.856 11.9827,257.663 11.324,257.095 Z "/>
		<path id="dp_path007" fill="#009bac" fill-rule="evenodd" d="M 310.428,113.084 C 288.303,111.112 276.589,113.109 259.388,118.116 C 254.321,119.591 249.475,122.679 246.035,124.283 C 245.752,124.416 238.287,128.212 242.605,132.713 C 243.469,133.615 244.704,134.337 246.105,134.387 C 250.6,134.548 256.545,133.261 261.587,132.701 C 272.051,131.54 284.757,130.408 298.479,131.076 C 314.8,131.869 333.483,136.124 347.275,139.927 C 354.064,141.799 362.844,147.965 369.199,147.043 C 372.328,146.588 375.111,142.381 372.032,139.168 C 368.708,135.699 365.917,133.731 362.529,131.48 C 348.251,121.995 326.757,114.728 310.428,113.084 Z "/>
		<path id="dp_path008" fill="#009bac" fill-rule="evenodd" d="M 78.228,206.957 C 77.4067,204.979 74.196,205.059 73.2267,206.449 C 72.4853,207.511 71.6933,208.539 70.9467,209.595 C 68.2693,213.38 66.4187,218.451 64.2787,222.903 C 54.3613,243.539 53.4093,274.012 59.576,296.991 C 60.0013,298.576 59.8653,306.033 64.7587,306.799 C 66.824,307.123 68.0987,305.792 68.3987,303.909 C 68.648,302.352 68.828,300.527 68.9827,298 C 69.6093,287.837 69.1133,281.252 69.792,270.635 C 70.324,262.317 71.0627,253.912 72.552,244.036 C 74.0573,234.061 79.996,213.105 78.228,206.957 Z "/>
		<path id="dp_path009" fill="#4cbdc3" fill-rule="evenodd" d="M 281.039,0.306667 C 208.247,-3.348 140.207,25.7507 90.604,68.772 C 65.112,90.8813 42.636,121.364 31.164,143.58 C 27.6907,150.309 23.152,160.745 21.4693,164.035 C 20.0093,166.891 22.364,170.237 25.3293,170.759 C 33.2547,172.155 36.568,158.908 38.18,156.768 C 51.4987,139.095 62.1613,126.483 80.4667,108.265 C 126.047,62.904 190.684,38.6267 230.064,31.1947 C 271.023,23.4653 322.341,24.1773 364.759,36.2667 C 385.921,42.296 401.371,48.7 418.107,56.0093 C 423.859,58.5227 428.355,61.056 432.881,62.9787 C 435.533,64.104 438.32,62.036 438.964,59.8867 C 440.887,53.452 402.697,31.3147 393.279,26.9827 C 360.679,11.9893 323.649,2.60133 281.039,0.306667 Z "/>
		<path id="dp_path010" fill="#4cbdc3" fill-rule="evenodd" d="M 508.301,153.769 C 501.931,151.033 502.504,158.584 504.133,162.644 C 507.837,171.871 513.505,189.579 515.66,200.412 C 522.507,234.82 529.613,292.839 517.229,338.281 C 508.545,370.149 497.669,410.223 464.701,447.687 C 450.801,463.483 438.953,477.185 424.077,490.699 C 421.255,493.261 418.229,495.319 415.62,498.708 C 413.749,501.136 414.757,504.812 417.872,505.532 C 424.505,507.063 451.839,485.308 456.979,481.099 C 548.495,406.168 567.872,283.667 527.623,188.233 C 525.747,183.788 518.871,158.773 508.301,153.769 Z "/>
		<path id="dp_path011" fill="#4cbdc3" fill-rule="evenodd" d="M 93.2347,464.263 C 91.996,463.767 84.812,464.117 86.9,470.056 C 88.904,475.76 92.5187,477.749 96.036,481.559 C 109.887,496.561 122.72,505.879 143.864,520.292 C 194.541,554.839 286.269,560.148 334.429,539.249 C 337.773,537.797 351.251,535.6 352.923,528.528 C 353.593,525.689 349.024,522.755 346.12,523.028 C 341.355,523.476 335.857,524.677 329.307,525.689 C 302.939,529.767 279.409,530.748 253.916,527.973 C 212.492,523.461 171.588,511.339 131.984,489.376 C 118.276,481.775 108.113,470.243 93.2347,464.263 Z "/>
		<path id="dp_path012" fill="#4cbdc3" fill-rule="evenodd" d="M 424.743,341.201 C 424.264,341.015 421.843,340.093 420.496,341.836 C 417.219,346.075 411.96,352.933 408.677,356.957 C 396.493,371.892 376.576,392.284 354.42,404.16 C 342.431,410.585 327.588,417.531 321.053,419.8 C 318.385,420.727 310.74,422.308 305.336,424.544 C 296.737,428.103 287.125,429.247 284.213,429.851 C 282.524,430.2 281.179,430.44 279.444,431.005 C 277.737,431.561 276.777,434.844 278.589,436.117 C 284.039,439.949 289.675,437.976 295.011,438.088 C 324.704,438.713 368.644,424.887 398.608,391.445 C 409.843,378.905 414.78,371.164 420.292,358.661 C 422.295,354.116 423.623,351.52 424.545,349.375 C 425.076,348.143 425.517,346.848 425.78,345.493 L 426.011,343.192 Z "/>
		<path id="dp_path013" fill="#4cbdc3" fill-rule="evenodd" d="M 184.501,147.273 C 181.381,145.356 179.513,147.095 178.165,147.739 C 173.652,149.896 164.784,155.195 160.952,158.269 C 131.629,181.8 111.556,215.539 110.82,259.723 C 110.745,264.177 109.541,273.492 114.233,276.205 C 123.383,281.496 124.917,259.924 125.349,257.681 C 128,243.925 135.745,225.117 144.145,208.967 C 152.568,192.773 166.445,175.476 178.849,162.308 C 181.172,159.841 184.06,156.912 185.471,155.123 C 187.248,152.871 187.484,149.319 184.501,147.273 Z "/>
		<path id="dp_path014" fill="#4cbdc3" fill-rule="evenodd" d="M 439.433,414.809 C 438.313,413.164 435.035,414.479 433.547,415.8 C 431.428,417.683 423.64,422.851 421.391,424.367 C 413.001,430.021 401.551,438.519 392.619,444.099 C 390.361,445.509 390.896,446.193 388.675,447.497 C 387.684,448.077 386.295,448.033 386.113,448.097 C 382.015,449.541 377.857,453.239 373.991,455.339 C 364.665,460.403 355.569,464.469 344.225,469.607 C 340.293,471.387 336.5,473.084 332.883,475.311 C 331.625,476.083 329.891,477.812 330.601,479.104 C 333.1,483.652 347.244,480.795 347.717,480.737 C 359.54,479.313 383.383,471.992 406.44,456.06 C 413.325,451.303 419.305,444.56 425.081,438.62 C 430.832,432.708 442.189,421.125 439.433,414.809 Z "/>
		<path id="dp_path015" fill="#4cbdc3" fill-rule="evenodd" d="M 356.587,75.3267 C 349.335,74.424 342.235,74.0107 334.676,74.1133 C 329.391,74.184 327.097,78.932 330.339,81.636 C 334.669,85.252 347.436,85.9333 350.284,86.6587 C 353.133,87.3853 356.927,89.2427 362.5,91.0973 C 367.143,92.6427 367.935,92.1347 372.812,93.8853 C 381.051,96.8427 395.784,104.948 403.7,109.629 C 405.193,110.513 424.347,125.56 428.376,124.983 C 433.081,124.309 431.623,119.404 428.897,116.064 C 426.331,112.92 420.192,105.965 413.827,100.705 C 398.217,87.808 380.517,78.728 356.587,75.3267 Z "/>
	</g>
	<g id="dp_dp016" transform="matrix(1,0,0,1,575.996,107.887)">
		<path id="dp_path017" fill="#004054" d="M 2.42667,-44.6507 L 38.1333,-44.6507 L 38.1333,-32.5867 L 19.2053,-32.5867 L 19.2053,-28.5653 L 35.4987,-28.5653 L 35.4987,-16.0853 L 19.2053,-16.0853 L 19.2053,-12.064 L 38.1333,-12.064 L 38.1333,0 L 2.42667,0 Z "/>
		<path id="dp_path018" fill="#004054" d="M 55.3133,-44.6507 L 72.716,-44.6507 L 89.9107,0 L 72.4387,0 L 69.2493,-8.32 L 58.78,-8.32 L 55.5907,0 L 38.1187,0 Z M 67.3773,-19.76 L 63.98,-28.288 L 60.5827,-19.76 Z "/>
		<path id="dp_path019" fill="#004054" d="M 107.391,0.693333 C 104.201,0.693333 101.151,0.416 98.2387,-0.138667 C 95.3267,-0.693333 92.9,-1.456 90.9587,-2.42667 L 90.9587,-14.976 C 93.1773,-13.9133 95.6387,-13.0347 98.3427,-12.3413 C 101.047,-11.648 103.461,-11.3013 105.588,-11.3013 C 106.975,-11.3013 108.061,-11.4747 108.847,-11.8213 C 109.632,-12.168 110.025,-12.6653 110.025,-13.312 C 110.025,-13.8667 109.701,-14.3173 109.055,-14.664 C 108.408,-15.0107 107.205,-15.484 105.449,-16.0853 C 103.416,-16.7787 102.26,-17.172 101.983,-17.264 C 99.024,-18.3733 96.736,-19.5293 95.1187,-20.7307 C 93.5013,-21.932 92.3333,-23.3653 91.6173,-25.0293 C 90.9013,-26.6933 90.5427,-28.82 90.5427,-31.408 C 90.5427,-36.1227 92.172,-39.624 95.4307,-41.912 C 98.6893,-44.2 103.6,-45.344 110.164,-45.344 C 112.336,-45.344 114.856,-45.124 117.721,-44.6853 C 120.587,-44.2467 122.968,-43.7493 124.863,-43.1947 L 124.863,-30.576 C 120.472,-32.3787 116.52,-33.28 113.007,-33.28 C 109.448,-33.28 107.668,-32.7027 107.668,-31.5467 C 107.668,-31.084 107.992,-30.7027 108.639,-30.4027 C 109.285,-30.1027 110.58,-29.6747 112.521,-29.12 L 114.324,-28.6347 C 117.883,-27.664 120.599,-26.4733 122.471,-25.064 C 124.343,-23.6547 125.613,-22.036 126.284,-20.2107 C 126.955,-18.3853 127.289,-16.108 127.289,-13.3813 C 127.289,-9.036 125.591,-5.604 122.193,-3.08533 C 118.796,-0.566667 113.861,0.693333 107.391,0.693333 Z "/>
		<path id="dp_path020" fill="#004054" d="M 137.975,-32.5867 L 126.604,-32.5867 L 126.604,-44.6507 L 166.124,-44.6507 L 166.124,-32.5867 L 154.753,-32.5867 L 154.753,0 L 137.975,0 Z "/>
		<path id="dp_path021" fill="#004054" d="M 186.341,-44.6507 L 203.12,-44.6507 L 203.12,-12.7573 L 221.355,-12.7573 L 221.355,0 L 186.341,0 Z "/>
		<path id="dp_path022" fill="#004054" d="M 244.66,0.693333 C 236.803,0.693333 230.851,-1.10933 226.807,-4.71467 C 222.763,-8.32 220.74,-14.1907 220.74,-22.3253 C 220.74,-30.46 222.763,-36.3307 226.807,-39.936 C 230.851,-43.5413 236.803,-45.344 244.66,-45.344 C 252.517,-45.344 258.469,-43.5413 262.513,-39.936 C 266.557,-36.3307 268.58,-30.46 268.58,-22.3253 C 268.58,-14.1907 266.557,-8.32 262.513,-4.71467 C 258.469,-1.10933 252.517,0.693333 244.66,0.693333 Z M 244.66,-13.52 C 247.109,-13.52 248.855,-14.1787 249.895,-15.496 C 250.935,-16.8133 251.455,-19.0893 251.455,-22.3253 C 251.455,-25.5613 250.935,-27.8373 249.895,-29.1547 C 248.855,-30.472 247.109,-31.1307 244.66,-31.1307 C 242.211,-31.1307 240.465,-30.472 239.425,-29.1547 C 238.385,-27.8373 237.865,-25.5613 237.865,-22.3253 C 237.865,-19.0893 238.385,-16.8133 239.425,-15.496 C 240.465,-14.1787 242.211,-13.52 244.66,-13.52 Z "/>
		<path id="dp_path023" fill="#004054" d="M 270.668,-44.6507 L 284.743,-44.6507 L 297.223,-27.1787 L 297.223,-44.6507 L 314.001,-44.6507 L 314.001,0 L 299.857,0 L 287.447,-17.472 L 287.447,0 L 270.668,0 Z "/>
		<path id="dp_path024" fill="#004054" d="M 317.547,-44.6507 L 338.763,-44.6507 C 354.201,-44.6507 361.92,-37.116 361.92,-22.048 C 361.92,-14.5133 359.921,-8.956 355.923,-5.37333 C 351.924,-1.79067 346.204,0 338.763,0 L 317.547,0 Z M 336.821,-12.7573 C 339.548,-12.7573 341.571,-13.3933 342.888,-14.664 C 344.205,-15.9347 344.864,-18.396 344.864,-22.048 C 344.864,-24.544 344.575,-26.4387 343.997,-27.7333 C 343.42,-29.028 342.564,-29.8827 341.432,-30.2987 C 340.3,-30.7147 338.763,-30.9227 336.821,-30.9227 L 334.325,-30.9227 L 334.325,-12.7573 Z "/>
		<path id="dp_path025" fill="#004054" d="M 386.588,0.693333 C 378.731,0.693333 372.779,-1.10933 368.735,-4.71467 C 364.691,-8.32 362.668,-14.1907 362.668,-22.3253 C 362.668,-30.46 364.691,-36.3307 368.735,-39.936 C 372.779,-43.5413 378.731,-45.344 386.588,-45.344 C 394.445,-45.344 400.397,-43.5413 404.441,-39.936 C 408.485,-36.3307 410.508,-30.46 410.508,-22.3253 C 410.508,-14.1907 408.485,-8.32 404.441,-4.71467 C 400.397,-1.10933 394.445,0.693333 386.588,0.693333 Z M 386.588,-13.52 C 389.037,-13.52 390.783,-14.1787 391.823,-15.496 C 392.863,-16.8133 393.383,-19.0893 393.383,-22.3253 C 393.383,-25.5613 392.863,-27.8373 391.823,-29.1547 C 390.783,-30.472 389.037,-31.1307 386.588,-31.1307 C 384.139,-31.1307 382.393,-30.472 381.353,-29.1547 C 380.313,-27.8373 379.793,-25.5613 379.793,-22.3253 C 379.793,-19.0893 380.313,-16.8133 381.353,-15.496 C 382.393,-14.1787 384.139,-13.52 386.588,-13.52 Z "/>
		<path id="dp_path026" fill="#004054" d="M 412.596,-44.6507 L 426.671,-44.6507 L 439.151,-27.1787 L 439.151,-44.6507 L 455.929,-44.6507 L 455.929,0 L 441.785,0 L 429.375,-17.472 L 429.375,0 L 412.596,0 Z "/>
	</g>
	<g id="dp_dp027" transform="matrix(1,0,0,1,572.26,236.273)">
		<path id="dp_path028" fill="#003d41" d="M -0.590667,-103.04 L 33.0093,-103.04 L 42.7693,-56 L 51.4093,-86.56 L 51.4093,-103.04 L 79.4093,-103.04 L 93.0093,-55.84 L 103.569,-103.04 L 137.169,-103.04 L 113.329,0 L 82.7693,0 L 68.8493,-46.88 L 53.8093,0 L 23.4093,0 Z "/>
		<path id="dp_path029" fill="#003d41" d="M 166.505,-103.04 L 202.505,-103.04 L 242.185,0 L 206.345,0 L 198.345,-20.48 L 170.665,-20.48 L 162.825,0 L 126.985,0 Z M 194.185,-44.48 L 184.425,-69.44 L 174.825,-44.48 Z "/>
		<path id="dp_path030" fill="#003d41" d="M 249.26,-77.92 L 221.74,-77.92 L 221.74,-103.04 L 311.34,-103.04 L 311.34,-77.92 L 283.66,-77.92 L 283.66,0 L 249.26,0 Z "/>
		<path id="dp_path031" fill="#003d41" d="M 319.743,-103.04 L 399.903,-103.04 L 399.903,-77.6 L 354.143,-77.6 L 354.143,-64.48 L 393.983,-64.48 L 393.983,-38.4 L 354.143,-38.4 L 354.143,-25.44 L 399.903,-25.44 L 399.903,0 L 319.743,0 Z "/>
		<path id="dp_path032" fill="#003d41" d="M 411.949,-103.04 L 467.629,-103.04 C 480.109,-103.04 489.549,-99.6 495.949,-92.72 C 502.349,-85.84 505.549,-76.7467 505.549,-65.44 C 505.549,-58.72 503.869,-52.72 500.509,-47.44 C 497.149,-42.16 492.643,-37.8667 486.989,-34.56 C 489.016,-32.96 490.723,-30.6133 492.109,-27.52 L 504.109,0 L 468.269,0 L 457.709,-23.84 C 456.963,-25.44 456.136,-26.56 455.229,-27.2 C 454.323,-27.84 453.016,-28.16 451.309,-28.16 L 446.349,-28.16 L 446.349,0 L 411.949,0 Z M 458.989,-54.72 C 462.723,-54.72 465.576,-55.6267 467.549,-57.44 C 469.523,-59.2533 470.509,-61.92 470.509,-65.44 C 470.509,-72.6933 466.936,-76.32 459.789,-76.32 L 446.349,-76.32 L 446.349,-54.72 Z "/>
		<path id="dp_path033" fill="#003d41" d="M 0.356,24.196 L 33.956,24.196 L 43.716,71.236 L 52.356,40.676 L 52.356,24.196 L 80.356,24.196 L 93.956,71.396 L 104.516,24.196 L 138.116,24.196 L 114.276,127.236 L 83.716,127.236 L 69.796,80.356 L 54.756,127.236 L 24.356,127.236 Z "/>
		<path id="dp_path034" fill="#003d41" d="M 185.705,128.836 C 167.892,128.836 154.452,124.649 145.385,116.276 C 136.319,107.903 131.785,94.436 131.785,75.876 C 131.785,57.1027 136.319,43.5293 145.385,35.156 C 154.452,26.7827 167.892,22.596 185.705,22.596 C 203.519,22.596 216.959,26.7827 226.025,35.156 C 235.092,43.5293 239.625,57.1027 239.625,75.876 C 239.625,94.436 235.092,107.903 226.025,116.276 C 216.959,124.649 203.519,128.836 185.705,128.836 Z M 185.705,99.716 C 192.319,99.716 197.092,97.8493 200.025,94.116 C 202.959,90.3827 204.425,84.3027 204.425,75.876 C 204.425,67.1293 202.985,60.9427 200.105,57.316 C 197.225,53.6893 192.425,51.876 185.705,51.876 C 178.985,51.876 174.159,53.6893 171.225,57.316 C 168.292,60.9427 166.825,67.1293 166.825,75.876 C 166.825,84.4093 168.292,90.516 171.225,94.196 C 174.159,97.876 178.985,99.716 185.705,99.716 Z "/>
		<path id="dp_path035" fill="#003d41" d="M 245.864,24.196 L 301.544,24.196 C 314.024,24.196 323.464,27.636 329.864,34.516 C 336.264,41.396 339.464,50.4893 339.464,61.796 C 339.464,68.516 337.784,74.516 334.424,79.796 C 331.064,85.076 326.557,89.3693 320.904,92.676 C 322.931,94.276 324.637,96.6227 326.024,99.716 L 338.024,127.236 L 302.184,127.236 L 291.624,103.396 C 290.877,101.796 290.051,100.676 289.144,100.036 C 288.237,99.396 286.931,99.076 285.224,99.076 L 280.264,99.076 L 280.264,127.236 L 245.864,127.236 Z M 292.904,72.516 C 296.637,72.516 299.491,71.6093 301.464,69.796 C 303.437,67.9827 304.424,65.316 304.424,61.796 C 304.424,54.5427 300.851,50.916 293.704,50.916 L 280.264,50.916 L 280.264,72.516 Z "/>
		<path id="dp_path036" fill="#003d41" d="M 350.569,24.196 L 384.969,24.196 L 384.969,56.836 L 411.849,24.196 L 450.729,24.196 L 415.049,66.756 L 453.609,127.236 L 417.129,127.236 L 393.929,88.516 L 384.969,98.916 L 384.969,127.236 L 350.569,127.236 Z "/>
		<path id="dp_path037" fill="#003d41" d="M 492.381,128.836 C 485.235,128.836 478.435,128.249 471.981,127.076 C 465.528,125.903 460.061,124.249 455.581,122.116 L 455.581,95.236 C 460.595,97.5827 466.141,99.5027 472.221,100.996 C 478.301,102.489 483.795,103.236 488.701,103.236 C 493.181,103.236 496.515,102.783 498.701,101.876 C 500.888,100.969 501.981,99.396 501.981,97.156 C 501.981,95.1293 500.968,93.556 498.941,92.436 C 496.915,91.316 493.128,89.8493 487.581,88.036 C 485.981,87.6093 483.955,86.9693 481.501,86.116 C 474.568,83.7693 469.181,81.236 465.341,78.516 C 461.501,75.796 458.728,72.516 457.021,68.676 C 455.315,64.836 454.461,60.036 454.461,54.276 C 454.461,33.156 469.128,22.596 498.461,22.596 C 503.688,22.596 509.448,23.076 515.741,24.036 C 522.035,24.996 527.315,26.116 531.581,27.396 L 531.581,54.436 C 521.661,50.4893 512.541,48.516 504.221,48.516 C 499.635,48.516 496.035,48.8893 493.421,49.636 C 490.808,50.3827 489.501,51.8227 489.501,53.956 C 489.501,55.3427 490.061,56.4627 491.181,57.316 C 492.301,58.1693 493.901,58.916 495.981,59.556 C 498.061,60.196 501.715,61.2093 506.941,62.596 C 515.155,64.836 521.448,67.556 525.821,70.756 C 530.195,73.956 533.181,77.636 534.781,81.796 C 536.381,85.956 537.181,91.0227 537.181,96.996 C 537.181,106.809 533.368,114.569 525.741,120.276 C 518.115,125.983 506.995,128.836 492.381,128.836 Z "/>
		<path id="dp_path038" fill="#003d41" d="M 6.9,151.432 L 62.42,151.432 C 70.74,151.432 77.7533,153.165 83.46,156.632 C 89.1667,160.099 93.4333,164.765 96.26,170.632 C 99.0867,176.499 100.5,183.112 100.5,190.472 C 100.5,197.832 98.9,204.445 95.7,210.312 C 92.5,216.179 87.9667,220.792 82.1,224.152 C 76.2333,227.512 69.46,229.192 61.78,229.192 L 41.3,229.192 L 41.3,254.472 L 6.9,254.472 Z M 53.78,202.472 C 57.5133,202.472 60.3933,201.405 62.42,199.272 C 64.4467,197.139 65.46,194.205 65.46,190.472 C 65.46,186.525 64.5533,183.485 62.74,181.352 C 60.9267,179.219 58.1533,178.152 54.42,178.152 L 41.3,178.152 L 41.3,202.472 Z "/>
		<path id="dp_path039" fill="#003d41" d="M 121.272,151.444 L 157.272,151.444 L 196.952,254.484 L 161.112,254.484 L 153.112,234.004 L 125.432,234.004 L 117.592,254.484 L 81.752,254.484 Z M 148.952,210.004 L 139.192,185.044 L 129.592,210.004 Z "/>
		<path id="dp_path040" fill="#003d41" d="M 201.244,151.424 L 256.924,151.424 C 269.404,151.424 278.844,154.864 285.244,161.744 C 291.644,168.624 294.844,177.717 294.844,189.024 C 294.844,195.744 293.164,201.744 289.804,207.024 C 286.444,212.304 281.937,216.597 276.284,219.904 C 278.311,221.504 280.017,223.851 281.404,226.944 L 293.404,254.464 L 257.564,254.464 L 247.004,230.624 C 246.257,229.024 245.431,227.904 244.524,227.264 C 243.617,226.624 242.311,226.304 240.604,226.304 L 235.644,226.304 L 235.644,254.464 L 201.244,254.464 Z M 248.284,199.744 C 252.017,199.744 254.871,198.837 256.844,197.024 C 258.817,195.211 259.804,192.544 259.804,189.024 C 259.804,181.771 256.231,178.144 249.084,178.144 L 235.644,178.144 L 235.644,199.744 Z "/>
		<path id="dp_path041" fill="#003d41" d="M 306.549,151.444 L 340.949,151.444 L 340.949,184.084 L 367.829,151.444 L 406.709,151.444 L 371.029,194.004 L 409.589,254.484 L 373.109,254.484 L 349.909,215.764 L 340.949,226.164 L 340.949,254.484 L 306.549,254.484 Z "/>
	</g>
</svg>