<svg id="Layer_1" data-name="Layer 1" xmlns="http://www.w3.org/2000/svg" viewBox="0 0 226.77 226.77"><defs><style>.cls-1{fill:#ffcd1c;}</style></defs><path class="cls-1" d="M84,137.44v4.23c0,8.59,13.47,15.84,29.42,15.84s29.43-7.25,29.43-15.84v-4.23c-6.76,5.52-17.33,9-29.43,9S90.7,143,84,137.44Z"/><path class="cls-1" d="M113.37,108.64c-12.1,0-22.67-3.49-29.42-9v4.26c0,8.59,13.47,15.84,29.42,15.84s29.43-7.25,29.43-15.84V99.63C136,105.15,125.47,108.64,113.37,108.64Z"/><path class="cls-1" d="M84,118.52v4.3c0,8.59,13.47,15.84,29.42,15.84s29.43-7.25,29.43-15.84v-4.3c-6.76,5.51-17.33,9-29.43,9S90.7,124,84,118.52Z"/><ellipse class="cls-1" cx="113.37" cy="85.02" rx="29.43" ry="15.84"/><path class="cls-1" d="M113.37,35a78.4,78.4,0,1,0,78.4,78.4A78.4,78.4,0,0,0,113.37,35Zm37.21,68.92v37.78c0,13.25-16.34,23.62-37.21,23.62s-37.21-10.37-37.21-23.62V85c0-13.24,16.35-23.62,37.21-23.62S150.58,71.78,150.58,85Z"/></svg>