<svg id="Layer_1" data-name="Layer 1" xmlns="http://www.w3.org/2000/svg" viewBox="0 0 226.77 226.77"><defs><style>.cls-1{fill:#f07e26;}</style></defs><polygon class="cls-1" points="93.32 90.06 109.58 99.62 109.58 80.75 93.32 71.2 93.32 90.06"/><polygon class="cls-1" points="113.28 55.59 96.77 65.11 113.09 74.69 129.46 65.12 113.28 55.59"/><polygon class="cls-1" points="83.62 108.07 67.12 117.57 83.51 126.92 99.89 117.46 83.62 108.07"/><polygon class="cls-1" points="116.58 99.67 132.85 90.28 132.87 71.24 116.58 80.76 116.58 99.67"/><polygon class="cls-1" points="86.86 151.85 103.2 142.41 103.34 123.55 87.01 132.98 86.86 151.85"/><polygon class="cls-1" points="143.6 107.68 127.19 116.99 143.53 126.42 159.94 117.11 143.6 107.68"/><polygon class="cls-1" points="63.37 142.36 79.86 151.9 80.01 132.98 63.53 123.58 63.37 142.36"/><polygon class="cls-1" points="147.12 151.45 163.47 142.2 163.48 123.15 147.02 132.49 147.12 151.45"/><path class="cls-1" d="M113.37,35a78.41,78.41,0,1,0,78.4,78.4A78.41,78.41,0,0,0,113.37,35Zm-3.18,109.49a3.53,3.53,0,0,1-1.75,3L85.07,161a3.49,3.49,0,0,1-3.5,0L58.1,147.4a3.51,3.51,0,0,1-1.75-3.06l.23-26.79a3.49,3.49,0,0,1,1.76-3L81.88,101a3.46,3.46,0,0,1,3.49,0l23.27,13.43h0a3.48,3.48,0,0,1,1.74,3Zm3.67-35.32h-1.23l-.17,0h0a3.63,3.63,0,0,1-1-.34h-.11l0,0L88,95.08a3.48,3.48,0,0,1-1.72-3v-27a3.48,3.48,0,0,1,1.75-3l23.48-13.54a3.49,3.49,0,0,1,3.53,0l23.08,13.59a3.5,3.5,0,0,1,1.72,3h0l0,27.16a3.5,3.5,0,0,1-1.75,3l-23.27,13.44A3.7,3.7,0,0,1,113.86,109.15Zm54.83,38.14-23.31,13.19a3.56,3.56,0,0,1-1.73.46,3.44,3.44,0,0,1-1.75-.48h0l-23.5-13.61a3.49,3.49,0,0,1-1.75-3V117a3.46,3.46,0,0,1,.13-.92H117a3.54,3.54,0,0,1,.74-1.07h0s0,0,0,0h.09a3.63,3.63,0,0,1,.59-.41l23.47-13.32a3.49,3.49,0,0,1,3.47,0l23.37,13.5a3.48,3.48,0,0,1,1.75,3v27.11A3.49,3.49,0,0,1,168.69,147.29Z"/><polygon class="cls-1" points="123.64 123.02 123.64 141.81 140.12 151.35 140.02 132.48 123.64 123.02"/></svg>