<svg id="Layer_1" data-name="Layer 1" xmlns="http://www.w3.org/2000/svg" viewBox="0 0 226.77 226.77"><defs><style>.cls-1{fill:#95c23d;}</style></defs><path class="cls-1" d="M151.57,44.91a78.4,78.4,0,1,0,30.29,106.65A78.4,78.4,0,0,0,151.57,44.91Zm-28.35,114a4.7,4.7,0,0,1-2.09,3.53L103.56,174.2a4.75,4.75,0,0,1-5.28-7.9l5.81-3.88a50.47,50.47,0,0,1-43-46,4.75,4.75,0,0,1,9.48-.74,40.94,40.94,0,0,0,35.53,37.38l-5.89-5.69a4.75,4.75,0,0,1,6.6-6.83l15,14.51A4.72,4.72,0,0,1,123.22,158.93ZM132.8,75.1A41,41,0,0,0,82.66,87.18l7.87-2.25a4.75,4.75,0,0,1,2.61,9.13L73.06,99.81a4.51,4.51,0,0,1-1.31.19A4.77,4.77,0,0,1,67,95.56L65.63,74.47a4.75,4.75,0,0,1,9.48-.62l.46,7a50.43,50.43,0,0,1,61.32-14.3,4.75,4.75,0,1,1-4.09,8.57Zm40.32,22.75a4.75,4.75,0,0,1-6.36,2.16l-6.27-3.1a50.48,50.48,0,0,1-18.27,60.26,4.75,4.75,0,0,1-5.39-7.83,41,41,0,0,0,14.61-49.46l-2,7.94a4.76,4.76,0,0,1-4.61,3.6,5.09,5.09,0,0,1-1.15-.14,4.76,4.76,0,0,1-3.46-5.76l5.06-20.27A4.75,4.75,0,0,1,152,82.14l19,9.35A4.74,4.74,0,0,1,173.12,97.85Z"/></svg>