<svg id="Layer_1" data-name="Layer 1" xmlns="http://www.w3.org/2000/svg" viewBox="0 0 226.77 226.77"><defs><style>.cls-1{fill:#e7344c;}</style></defs><path class="cls-1" d="M113.37,35a78.4,78.4,0,1,0,78.4,78.4A78.4,78.4,0,0,0,113.37,35ZM98.75,54.63a50.62,50.62,0,0,1,47.56,82.29,4.75,4.75,0,1,1-7.29-6.08A41.13,41.13,0,0,0,100.38,64a4.75,4.75,0,0,1-1.63-9.36Zm21.94,42.21a10,10,0,1,1,13.63,3.65A10,10,0,0,1,120.69,96.84ZM132,138.71a10,10,0,1,1-10-10A10,10,0,0,1,132,138.71ZM74.83,154.62a4.74,4.74,0,0,1-6.69-.6,50.62,50.62,0,0,1,47.48-82.33A4.75,4.75,0,1,1,114,81.05a41.12,41.12,0,0,0-38.57,66.88A4.75,4.75,0,0,1,74.83,154.62Zm18.89-40.7a10,10,0,1,1-3.65-13.63A10,10,0,0,1,93.72,113.92ZM122,164a50.8,50.8,0,0,1-47.52-33.15,4.75,4.75,0,0,1,8.92-3.28,41.13,41.13,0,0,0,77.21,0,4.75,4.75,0,0,1,8.92,3.27A50.79,50.79,0,0,1,122,164Z"/></svg>