<svg id="Layer_1" data-name="Layer 1" xmlns="http://www.w3.org/2000/svg" viewBox="0 0 226.77 226.77"><defs><style>.cls-1{fill:#009bac;}</style></defs><path class="cls-1" d="M113.39,59.53a53.86,53.86,0,1,0,53.85,53.86A53.92,53.92,0,0,0,113.39,59.53Zm0,91.6a37.75,37.75,0,1,1,37.74-37.74A37.78,37.78,0,0,1,113.39,151.13Z"/><path class="cls-1" d="M113.39,35a78.4,78.4,0,1,0,78.4,78.4A78.4,78.4,0,0,0,113.39,35Zm0,141.16a62.77,62.77,0,1,1,62.76-62.76A62.84,62.84,0,0,1,113.39,176.15Z"/><path class="cls-1" d="M113.39,84.55a28.84,28.84,0,1,0,28.83,28.84A28.88,28.88,0,0,0,113.39,84.55Zm0,41.82a13,13,0,1,1,13-13A13,13,0,0,1,113.39,126.37Z"/></svg>