<?xml version="1.0" encoding="utf-8"?>
<!-- Generator: Adobe Illustrator 26.3.1, SVG Export Plug-In . SVG Version: 6.00 Build 0)  -->
<svg version="1.1" id="Layer_1" xmlns="http://www.w3.org/2000/svg" xmlns:xlink="http://www.w3.org/1999/xlink" x="0px" y="0px"
	 viewBox="0 0 226.9 226.9" style="enable-background:new 0 0 226.9 226.9;" xml:space="preserve">
<style type="text/css">
	.st0{fill-rule:evenodd;clip-rule:evenodd;fill:#707DBC;}
</style>
<path class="st0" d="M38.6,71.7c-53.2,99.3,93.1,180.8,149.6,83.4C241.4,55.8,95.1-25.7,38.6,71.7z M72.5,161.6
	c-1,1-2.3,1.5-3.6,1.5s-2.6-0.5-3.6-1.5C39,135.1,39,92.1,65.4,65.6c2-2,5.2-2,7.1,0c2,2,2,5.2,0,7.1c-22.5,22.5-22.5,59.2,0,81.7
	C74.5,156.4,74.5,159.6,72.5,161.6z M87.4,146.7c-1,1-2.3,1.5-3.6,1.5c-1.3,0-2.6-0.5-3.6-1.5c-8.9-8.8-13.7-20.6-13.7-33.2
	c0-12.5,4.9-24.3,13.7-33.2c2-2,5.2-2,7.1,0c2,2,2,5.2,0,7.1c-6.9,6.9-10.8,16.2-10.8,26s3.8,19.1,10.8,26
	C89.3,141.6,89.3,144.8,87.4,146.7z M102.1,124.8c2,2,2,5.2,0,7.1c-1,1-2.3,1.5-3.6,1.5c-1.3,0-2.6-0.5-3.6-1.5
	c-10.1-10.1-10.1-26.6,0-36.7c2-2,5.2-2,7.1,0c2,2,2,5.2,0,7.1C95.9,108.5,95.9,118.6,102.1,124.8z M128.2,133.4
	c-1.3,0-2.6-0.5-3.6-1.5c-2-2-2-5.2,0-7.1c6.2-6.2,6.2-16.3,0-22.5c-2-2-2-5.2,0-7.1c2-2,5.2-2,7.1,0c10.1,10.1,10.1,26.6,0,36.7
	C130.8,132.9,129.5,133.4,128.2,133.4z M143,148.2c-1.3,0-2.6-0.5-3.6-1.5c-2-2-2-5.2,0-7.1c6.9-6.9,10.8-16.2,10.8-26
	s-3.8-19.1-10.8-26c-2-2-2-5.2,0-7.1c2-2,5.2-2,7.1,0c8.9,8.8,13.7,20.6,13.7,33.2c0,12.5-4.9,24.3-13.7,33.2
	C145.6,147.7,144.3,148.2,143,148.2z M161.4,161.6c-1,1-2.3,1.5-3.6,1.5s-2.6-0.5-3.6-1.5c-2-2-2-5.2,0-7.1
	c22.5-22.5,22.5-59.2,0-81.7c-2-2-2-5.2,0-7.1c2-2,5.2-2,7.1,0C187.8,92.1,187.8,135.1,161.4,161.6z"/>
</svg>
