<svg id="Layer_1" data-name="Layer 1" xmlns="http://www.w3.org/2000/svg" viewBox="0 0 226.77 226.77"><defs><style>.cls-1{fill:#d24291;}</style></defs><path class="cls-1" d="M103.71,104.77c.15.88.34,1.77.58,2.65a28,28,0,0,0,9.23,14.31,28.07,28.07,0,0,0,8.69-12.6,28.7,28.7,0,0,0,1.1-4.36l-1.06-.38A27.94,27.94,0,0,0,103.71,104.77Z"/><path class="cls-1" d="M120.39,125.92a28,28,0,0,0,18.48,1.32,24.62,24.62,0,0,0,2.43-.79,28.25,28.25,0,0,0-10.92-17.85c-.25,1-.53,2-.87,3A35.65,35.65,0,0,1,120.39,125.92Z"/><path class="cls-1" d="M107,86a28.3,28.3,0,0,0-3.54,10.69,35.66,35.66,0,0,1,20,0,28.29,28.29,0,0,0-10-18.38A28.25,28.25,0,0,0,107,86Z"/><path class="cls-1" d="M86.72,122.45a28.49,28.49,0,0,0-1,4c.24.09.47.19.72.27a28.08,28.08,0,0,0,20.19-.79,35.65,35.65,0,0,1-9.79-16.49c-.07-.28-.14-.56-.2-.83A28,28,0,0,0,86.72,122.45Z"/><path class="cls-1" d="M79.39,120.06a35.54,35.54,0,0,1,16.2-20,35.82,35.82,0,0,1,4.76-17.9,36.22,36.22,0,0,1,6.28-8c-.66-.28-1.33-.54-2-.78a28.2,28.2,0,0,0-36.92,31.12c.08.48.27,1.44.27,1.45a3.83,3.83,0,0,1-.43,2.67L62.69,117l9.18.53a3.88,3.88,0,0,1,2.62,1.25s.6.66.92,1a27.41,27.41,0,0,0,3.26,2.84C78.88,121.77,79.11,120.91,79.39,120.06Z"/><path class="cls-1" d="M114.49,34.87a78.4,78.4,0,1,0,77.29,79.5A78.4,78.4,0,0,0,114.49,34.87ZM170.7,125l-14.48,1-.22.21a35.54,35.54,0,0,1-6.59,4.85A35.91,35.91,0,0,1,139,156.5h0l-.62,13.87a3.87,3.87,0,0,1-5.73,3.2l-12.69-7.07-.3.05a35.92,35.92,0,0,1-17.24-1.25h0a36,36,0,0,1-24.76-34.16,35.84,35.84,0,0,1-7.73-6v0L56,124.36a3.85,3.85,0,0,1-3.12-5.77L60.13,106c0-.11,0-.22-.05-.31a36,36,0,0,1,1.47-17.22h0A35.94,35.94,0,0,1,107.1,66.06,36.47,36.47,0,0,1,113.5,69a36.63,36.63,0,0,1,8.6-3.57,35.9,35.9,0,0,1,44.56,41.86v0l7.08,11.94a3.86,3.86,0,0,1-3,5.81Z"/><path class="cls-1" d="M140.89,134.69a35.81,35.81,0,0,1-27.39-3.61,36,36,0,0,1-18,4.86,35.46,35.46,0,0,1-10-1.43A28.24,28.24,0,0,0,104.77,158a28.4,28.4,0,0,0,13.53,1l1.46-.29a3.57,3.57,0,0,1,.8-.09,3.87,3.87,0,0,1,1.87.49l8.48,4.73.41-9.18a3.83,3.83,0,0,1,1.22-2.64l1-.93a28,28,0,0,0,6.8-11.13,28.86,28.86,0,0,0,1.2-5.43l-.62.19Z"/><path class="cls-1" d="M158.81,107s.21-.87.3-1.31a28.21,28.21,0,0,0-27.57-33.85,28.5,28.5,0,0,0-7.42,1,28.18,28.18,0,0,0-3.75,1.31,36.06,36.06,0,0,1,11,25.92,36,36,0,0,1,17,22.54,27.55,27.55,0,0,0,2.36-2c.35-.33,1-1,1.05-1a3.89,3.89,0,0,1,2.46-1.13l9.68-.69-4.68-7.91A3.84,3.84,0,0,1,158.81,107Z"/></svg>